<svg width="30" height="29" viewBox="0 0 30 29" fill="none" xmlns="http://www.w3.org/2000/svg">
<g filter="url(#filter0_d_2_60)">
<path d="M24.9041 6.22719L22.6685 4.87536V0.283746C22.6685 0.13855 22.5509 0.0211906 22.4059 0.0211906H19.0916C18.9468 0.0211906 18.8293 0.13855 18.8293 0.283746V2.55422L14.6674 0.0380134C14.641 0.022192 14.6119 0.0119782 14.5821 0.00717169C14.5152 -0.00844948 14.4451 0.00256544 14.3862 0.0380134L4.15739 6.22719C4.07889 6.27446 4.03082 6.35997 4.03082 6.4517V8.61723C4.03082 8.71135 4.08109 8.79827 4.1626 8.84494C4.24431 8.8918 4.34465 8.8914 4.42576 8.84393L5.96624 7.94331V18.522H5.23325C5.08825 18.522 4.9709 18.6394 4.9709 18.7846V20.7376C4.9709 20.8826 5.08825 21.0002 5.23325 21.0002H23.8282C23.9732 21.0002 24.0908 20.8826 24.0908 20.7376V18.7846C24.0908 18.6394 23.9732 18.522 23.8282 18.522H23.0952V7.94392L24.6359 8.84393C24.6768 8.86777 24.7224 8.87978 24.7683 8.87978C24.8134 8.87978 24.8584 8.86817 24.8989 8.84494C24.9806 8.79827 25.0307 8.71135 25.0307 8.61723V6.4517C25.0307 6.35997 24.9826 6.27446 24.9041 6.22719V6.22719ZM19.3542 0.546101H22.1433V4.55793L19.3542 2.87165V0.546101ZM23.5657 20.4751H5.49581V19.0469H23.5657V20.4751ZM16.8932 18.522H12.1682V10.3233H16.8932V18.522ZM22.5703 18.522H17.4183V10.0608C17.4183 9.91558 17.3008 9.79823 17.1558 9.79823H11.9057C11.7609 9.79823 11.6433 9.91558 11.6433 10.0608V18.522H6.49115V7.6363L14.5268 2.93794L22.5703 7.6371V18.522ZM24.5057 8.16001L14.6592 2.40722C14.6184 2.38339 14.5725 2.37137 14.5268 2.37137C14.481 2.37137 14.4353 2.38339 14.3943 2.40722L4.55573 8.15961V6.5995L14.5268 0.566729L24.5057 6.5995V8.16001Z" fill="#31353B"/>
</g>
<defs>
<filter id="filter0_d_2_60" x="0.0308228" y="0.000244141" width="28.9998" height="29" filterUnits="userSpaceOnUse" color-interpolation-filters="sRGB">
<feFlood flood-opacity="0" result="BackgroundImageFix"/>
<feColorMatrix in="SourceAlpha" type="matrix" values="0 0 0 0 0 0 0 0 0 0 0 0 0 0 0 0 0 0 127 0" result="hardAlpha"/>
<feOffset dy="4"/>
<feGaussianBlur stdDeviation="2"/>
<feComposite in2="hardAlpha" operator="out"/>
<feColorMatrix type="matrix" values="0 0 0 0 0 0 0 0 0 0 0 0 0 0 0 0 0 0 0.25 0"/>
<feBlend mode="normal" in2="BackgroundImageFix" result="effect1_dropShadow_2_60"/>
<feBlend mode="normal" in="SourceGraphic" in2="effect1_dropShadow_2_60" result="shape"/>
</filter>
</defs>
</svg>
